#!OML:ASF F:\VICON\USERDATA\INSTALL\rory3\rory3.ASF
:FULLY-SPECIFIED
:DEGREES
28
root -0.22453358385344152 17.69093134087074 0.18027434531686026 5.379348541566947 1.0903851320741624 1.1964948462625613
lfemur 1.5250719481570112 -0.14945913746138162 -25.552629427785938
ltibia 38.381543398670985
lfoot -7.3577352514800936 -3.8436461769891457
ltoes -28.351221713976173
rfemur -47.13148637029865 -1.7564324541253327 22.423470781163342
rtibia 96.16418515094338
rfoot -0.5578080139201351 -4.463414355279117
rtoes -0.7189822503777314
lowerback 16.51645330308631 -0.6073592092570442 -2.7852254758814734
upperback -0.8737120433374495 -1.2355091456057337 0.8192113172599179
thorax -10.105665629109334 -0.4166098341485236 2.950050336679718
lowerneck -20.218240770555568 -3.402651362796655 -1.7136030223438352
upperneck 12.531851901952308 -4.8141486732984955 3.7400535471085936
head 7.308173137101007 -1.9989822753228457 0.9413633749344034
lclavicle -5.963989054883459e-16 -5.277643041911597e-16
lhumerus -32.549233120208434 -14.453378403975023 95.72124388415781
lradius 117.07638191355245
lwrist 39.06039780005468
lhand -24.196864462946287 2.732178707673336
lfingers 7.125020000000058
lthumb 2.286351540529007 32.61442004362359
rclavicle -5.963989054883459e-16 -5.277643041911597e-16
rhumerus -59.42165429095304 10.620975615485158 -99.39075765471236
rradius 109.80612868468566
rwrist -18.52014680582521
rhand -19.399979304411445 36.07447768811223
rfingers 7.125020000000058
rthumb 6.918172212232666 9.615716115196962
29
root -0.20120884409399037 17.931482953872163 0.5880283137443882 5.5935258492605024 -0.07710479748940702 0.6357140875442782
lfemur 5.058618229925546 -0.08936024293462319 -25.46687721898862
ltibia 33.52738883072752
lfoot 1.694790246055026 -6.793960203084568
ltoes -29.503470249895695
rfemur -47.29741448743848 -0.29849246706235055 23.356270812834843
rtibia 86.24573155211024
rfoot -1.9086454973199267 -2.922657164617923
rtoes -4.1746280885883165
lowerback 15.744864903854497 -0.7798899096473574 -2.556457489180695
upperback -1.0767062871207649 -1.3796211741834195 1.1480818772352734
thorax -9.950558600146424 -0.49104771352579013 3.141895305438881
lowerneck -20.22710553756714 -3.2153461269898314 -1.7348769098739683
upperneck 13.080419768156485 -4.53365442424457 3.4761340314434177
head 7.474034003588702 -1.8816432680395914 0.8863911705746272
lclavicle -7.538419193747801e-16 -6.496728793630924e-16
lhumerus -33.29020936743522 -14.368398356312648 95.51491868377173
lradius 118.68924458023824
lwrist 39.593057800506074
lhand -24.256743997286268 2.105047797006444
lfingers 7.125020000000057
lthumb 2.2284762538961296 31.98261511737072
rclavicle -7.538419193747801e-16 -6.496728793630924e-16
rhumerus -61.39196015875943 10.508916764976743 -99.05164217108062
rradius 110.67034191810353
rwrist -18.57991929055141
rhand -19.299569571931734 35.642245949421984
rfingers 7.125020000000057
rthumb 7.014794197724674 10.21244092813824
30
root -0.20134832081167559 18.18016908501197 1.6406540372346718 6.005432295872921 -1.2034774749389845 0.39089885514097
lfemur 8.731865156016106 -0.3351071265358361 -25.53943325571487
ltibia 29.902337792604364
lfoot 11.226250772643661 -9.444375580089975
ltoes -28.26425113930542
rfemur -46.57996000164927 1.365217831844668 23.869860512209787
rtibia 75.50076261256284
rfoot -2.099407293652056 -1.4508103027666301
rtoes -7.467106073051184
lowerback 15.042473086462422 -0.8904853925015083 -2.2304926516131003
upperback -1.3260625953652545 -1.4381066640563933 1.4491389310618465
thorax -9.830234803278643 -0.527271712065159 3.322257036314052
lowerneck -20.155255070589824 -3.056259523006915 -1.7827556042288848
upperneck 13.731398505423583 -4.286045649746058 3.308679243943021
head 7.66940975241155 -1.7822026076264232 0.8619941680629833
lclavicle -4.0814620614828016e-16 -3.8199965295375265e-16
lhumerus -33.73860183520976 -14.426980531197687 95.26421221077177
lradius 120.35426186975374
lwrist 39.65936440578973
lhand -24.100772852926227 2.1013587591037552
lfingers 7.125020000000059
lthumb 2.3790889952920296 31.978157826477066
rclavicle -4.0814620614828016e-16 -3.8199965295375265e-16
rhumerus -62.68680656049915 10.652235664336938 -98.52903409457736
rradius 112.09966549355181
rwrist -18.00186784188679
rhand -19.297833828563007 35.46342768861916
rfingers 7.125020000000059
rthumb 7.016278858244596 10.738036079993673
31
root -0.18949874512234177 18.386146705048358 2.211705926885637 6.387651257334069 -2.1026454303769215 0.19239754409224874
lfemur 11.56100940203325 -1.1723172440314777 -25.860022838720873
ltibia 25.62038040204215
lfoot 19.18234686837552 -11.952579945207354
ltoes -25.55593378269672
rfemur -45.435616936621464 2.679295357748714 24.41885107791036
rtibia 63.60447601508856
rfoot -1.4216625558022775 -0.09335790523720977
rtoes -11.189208054240765
lowerback 14.376179050012501 -1.0397214670462356 -1.9697389507273575
upperback -1.5710047422573348 -1.575009843720542 1.6208649499117138
thorax -9.747499588238298 -0.6007586373797446 3.366509772698291
lowerneck -20.14211506382331 -2.9784960712893325 -1.825750517760448
upperneck 14.271651737945351 -4.164952442034821 3.1850734499699733
head 7.845107317856724 -1.7331930697045719 0.8385916881221335
lclavicle -3.9339422434242034e-16 -3.7057707956571815e-16
lhumerus -34.218315939551616 -14.87229577937077 94.89166395330648
lradius 121.13701304489518
lwrist 39.026090031621166
lhand -24.08331889503789 1.9442265496729476
lfingers 7.125020000000059
lthumb 2.3959492785255128 31.82298982914974
rclavicle -3.9339422434242034e-16 -3.7057707956571815e-16
rhumerus -64.19238236345859 10.136227813583297 -97.95974721636226
rradius 112.82104780111399
rwrist -16.88118240023275
rhand -19.403047025304797 35.836080256750144
rfingers 7.125020000000059
rthumb 6.914480892751088 11.414600170988518
